<?xml version="1.0" encoding="utf-8"?>
<!-- Generator: Adobe Illustrator 24.3.0, SVG Export Plug-In . SVG Version: 6.00 Build 0)  -->
<svg version="1.1" id="Layer_1" xmlns="http://www.w3.org/2000/svg" xmlns:xlink="http://www.w3.org/1999/xlink" x="0px" y="0px"
	 viewBox="0 0 568.1 568.1" style="enable-background:new 0 0 568.1 568.1;" xml:space="preserve">
<style type="text/css">
	.st0{fill:#BB000E;}
	.st1{fill:#FFFFFF;}
</style>
<g>
	<circle class="st0" cx="284" cy="284" r="284"/>
	<path class="st1" d="M239.3,278c0-6,0-11.8,0-17.5c0-0.5,0-1.1,0-1.6c0.2-5.2,2.3-7.3,7.5-7.3c23,0,45.9-0.1,68.9-0.1
		c2.7,0,5.4,0,8.2,0.1c4.2,0.1,6.1,1.9,6.2,6.1c0.1,6,0.1,12.1,0.1,18.1c0,0.6,0,1.3,0,2.2c0.8,0,1.5,0,2.2,0c20.6,0,41.2,0,61.9,0
		c8.3,0,16.6-0.2,24.6,2.1c36.4,10.1,61.1,32.7,71.4,69.2c10,35.4,1.3,67-23.5,94c-14.6,15.9-33.1,24.6-54.1,28.7
		c-34.6,6.9-77-8.4-99.5-44.2c-1.3-2.1-2.5-4.2-3.9-6.2c-0.3-0.4-1.1-0.7-1.7-0.7c-6.3,0-12.6,0.1-18.9,0.1
		c-7.8,0-15.7-0.1-23.5-0.2c-3.1-0.1-5.3,0.9-6.8,3.7c-11.6,21.7-29.7,35.5-52.5,43.7c-10.5,3.8-21.4,5.8-32.6,5.8
		c-12.8-0.1-25-3.1-36.7-7.9c-32.7-13.5-52.1-38.3-58.7-72.7c-5.5-28.7,0.8-55.1,18.9-78.4c12.3-15.9,28.5-26.5,47.6-32.6
		c5.1-1.6,10.2-2.9,15.4-4.1c1.8-0.4,3.7-0.3,5.5-0.3c24,0,48,0,72,0C237.8,278,238.4,278,239.3,278z M285.5,290.2c0,0,0-0.1,0-0.1
		c-35,0-70.1,0-105.1,0c-7.7,0-15.4,0.6-23,2.2c-19.8,4.2-36.4,13.7-49.3,29.4c-14.7,17.8-20.5,38.5-18.7,61.4
		c1.7,21.9,11,40.3,27.1,54.9c21,19,45.9,25.7,73.6,20.6c18.9-3.5,34.8-12.9,47.7-27.2c4.7-5.2,8.3-11.1,11.2-17.5
		c1.6-3.6,4.3-5.5,8.3-5.5c5,0,9.9,0.2,14.8,0.2c12.8,0,25.6-0.1,38.3-0.2c4.7,0,8.1,1.5,10.3,5.9c3.3,6.5,7.1,12.8,12.2,18.1
		c23.5,24.5,51.9,33.2,84.8,24.7c50.9-13.3,74.1-66.7,57.9-109.7c-8.4-22.2-22.8-38.9-44.5-49c-12.9-6-26.6-8.2-40.7-8.2
		c-7.5,0-15,0.1-22.5,0.1C340.4,290.3,313,290.2,285.5,290.2z M252.8,277.6c21.8,0,43.4,0,64.9,0c0-3.7,0-7.3,0-10.9
		c0-1.4-0.7-1.7-2-1.7c-20.4,0-40.8,0-61.2,0c-0.6,0-1.1,0-1.8,0C252.8,269.3,252.8,273.4,252.8,277.6z"/>
	<path class="st1" d="M291.5,237.9c-4.2,0-8.2,0-12.3,0c-1.5,0-1.4-1.3-1.4-2.3c0-2.8,0.2-5.6,0.2-8.5c0-39.1,0-78.2,0-117.4
		c0-1.7,0.1-3.4,0.5-5c1.6-6.5,6.5-10.2,13.7-10.4c6-0.1,12-0.2,17.9-0.1c8,0.1,13.8,6.5,13.9,15.1c0,9.1-0.1,18.3-0.1,27.4
		c0,26.4,0,52.9,0,79.3c0,0.7,0,1.4,0,2.2c6.4,0,12.7,0,19.3,0c0-0.7,0-1.4,0-2.1c0-31.1,0-62.1,0-93.2c0-3.6,0-7.2,0.5-10.7
		c0.8-6.2,4.5-9.6,10.7-10.5c1.5-0.2,3-0.3,4.6-0.3c9.3,0,18.6,0,27.9-0.1c1.6,0,2.2,0.6,2.2,2c0,3.7,0,7.4,0,11.3
		c-0.5,0-1.1,0-1.7,0c-9.5,0-18.9,0-28.4,0c-1.5,0-2.2,0.5-2.2,1.9c-0.1,1.3-0.1,2.6-0.1,3.9c0,10.5,0,21,0,31.5
		c0,12.6-0.1,25.2-0.1,37.9c0,9,0.3,18,0.1,26.9c-0.1,2.8-0.7,5.7-1.8,8.2c-2.3,5.3-7,7.2-12.5,7.3c-6.2,0.1-12.5,0-18.8-0.2
		c-7.8-0.3-12.6-5.4-12.9-13.2c0-0.4,0-0.8,0-1.1c0-35.8-0.1-71.6-0.1-107.4c0-0.8,0-1.5,0-2.3c-6.4,0-12.7,0-19.1,0
		c0,21.7,0,43.3,0,64.9C291.5,194.5,291.5,216.1,291.5,237.9z"/>
	<rect x="403.3" y="101.4" class="st1" width="13.3" height="13.3"/>
	<path class="st1" d="M154.6,395.4c-0.8,0-1.5,0-2.1,0c-7.8,0-15.6-0.1-23.3-0.1c-0.5,0-1.1,0-1.6-0.1c-3.6-0.4-5.1-2-5.4-5.6
		c-0.2-2.4-0.2-4.9-0.2-7.3c0-6.1,0-12.2,0-18.3c0-0.9,0-1.8,0.2-2.8c0.4-3.1,2.3-5,5.4-5.5c1.6-0.2,3.2-0.3,4.9-0.3
		c6.8,0,13.5,0,20.2,0c0.6,0,1.2,0,2,0c0-0.8,0-1.4,0-2c0-7.3,0-14.6,0-21.9c0-0.5,0-1.1,0-1.6c0.4-4.9,2.5-7,7.4-7
		c7.8-0.1,15.5-0.1,23.3,0c5.7,0,8.1,2.5,8.1,8.2c0,7.4,0,14.8,0,22.2c0,0.6,0,1.3,0,2.1c0.8,0,1.5,0,2.1,0c7.5,0,15,0.1,22.5,0.1
		c0.7,0,1.4,0.1,2.1,0.2c3.5,0.5,5.6,2.6,5.7,6.2c0.2,7,0.2,13.9,0.2,20.9c0,2,0,3.9-0.2,5.9c-0.3,4.1-2.6,6.4-6.7,6.5
		c-7.2,0.2-14.4,0.1-21.5,0.2c-1.3,0-2.7,0-4.2,0c0,2.5,0,4.8,0,7.1c0,6.2,0,12.4-0.2,18.6c-0.2,4.5-2.4,6.7-6.9,6.8
		c-8.4,0.1-16.9,0.1-25.3,0c-4.1,0-6.2-2-6.4-6.1c-0.2-6-0.1-12-0.2-18C154.5,401.1,154.6,398.4,154.6,395.4z M134.4,368.8
		c0,4.1,0,8,0,11.9c0,1.2,0.6,1.5,1.7,1.5c6.9,0,13.8,0,20.7,0c1.6,0,3.2,0,4.7,0.2c3.4,0.5,4.7,1.9,5.1,5.3c0.1,0.7,0.1,1.3,0.1,2
		c0,7.7,0,15.3,0,23c0,0.6,0,1.2,0,1.8c4.5,0,8.9,0,13.3,0c0-0.7,0-1.3,0-1.9c0-7.3,0-14.7,0.1-22c0-5.8,2.3-8,8-8.2
		c0.1,0,0.2,0,0.3,0c7.4,0,14.8,0,22.2,0c0.6,0,1.2,0,1.7,0c0-4.6,0-8.9,0-13.3c-0.7,0-1.3,0-1.9,0c-7,0-13.9,0-20.9,0
		c-1.4,0-2.8-0.1-4.2-0.3c-2.8-0.5-4.3-1.9-4.9-4.7c-0.2-1-0.3-2-0.3-3.1c0-7.3,0-14.6-0.1-21.9c0-0.8,0-1.6,0-2.4
		c-4,0-7.9,0-11.8,0c-1.3,0-1.6,0.6-1.6,1.8c0,7.7,0,15.5,0,23.2c0,1.1-0.1,2.3-0.3,3.4c-0.4,2.3-1.4,3.4-3.7,3.7
		c-1.7,0.2-3.4,0.3-5,0.3C150,368.8,142.3,368.8,134.4,368.8z"/>
	<path class="st1" d="M317.4,382.4c-1.7-15,14.1-26.7,26-26.4c14.2,0.4,26.1,12.2,26,26.6c0,14.4-12.2,26.5-26.7,26.3
		C329.5,408.8,315.7,396.3,317.4,382.4z M356.1,382.4c0-6.7-6.2-13.1-12.7-13.1c-7.3,0-13.5,6-13.5,13.2c0,7,6.3,13,13.6,13
		C349.9,395.6,356.2,389.1,356.1,382.4z"/>
	<path class="st1" d="M356.2,336.5c-0.2-13.1,11.1-25.2,23.4-25.6c7.7-0.3,14.7,1.1,20.3,6.7c5,5,8,10.8,8.3,17.9
		c0.6,15.2-10.3,27.2-25.1,27.4C367.5,363.2,356.5,352.2,356.2,336.5z M382.4,323.4c-5.7,0-11.5,5-12.6,10.9
		c-1,5.7,1.2,11.3,5.8,13.6c4.7,2.3,9.5,2.6,14.1-0.4c4.3-2.8,6-6.8,5.3-12C394.2,328.9,388.7,323.4,382.4,323.4z"/>
	<path class="st1" d="M395.1,447.7c-14.4,0.2-25.5-11-25.7-26c-0.2-14.5,10.9-25.8,25.7-26c14.3-0.3,26,10.6,26.3,24.5
		C421.7,436.5,411.3,447.4,395.1,447.7z M408.2,421.2c-0.1-7.5-5-12.3-12.6-12.3c-8.4,0-13.1,5.2-13,14.2c0.1,6,6,11.2,12.6,11.2
		C403.2,434.4,408.2,429.3,408.2,421.2z"/>
	<path class="st1" d="M434.8,402c-17.6-0.4-27.2-14-26.4-28c0.7-13.8,13-24.4,26.8-24.2c13.3,0.2,25.2,11.8,25.4,24.1
		c0.2,8.1-1.7,15-7.7,20.6C447.7,399.3,441.7,401.9,434.8,402z M421.7,375.6c0,6.7,5.4,13.1,11.2,13.1c8.6,0,15.1-5.5,15.1-12.9
		c0-6.6-6.5-12.8-13.4-12.7C427.4,363.2,421.7,368.8,421.7,375.6z"/>
	<path class="st1" d="M239.5,316.4c0-4.2,0-8.2,0-12.5c29.9,0,60,0,90.2,0c0,4.1,0,8.3,0,12.5C299.8,316.4,269.8,316.4,239.5,316.4z
		"/>
	<path class="st1" d="M304.4,342.9c-4.1,0-8.3,0-12.7,0c0-4.2,0-8.3,0-12.6c4.1,0,8.2,0,12.7,0C304.4,334.5,304.4,338.6,304.4,342.9
		z"/>
	<path class="st1" d="M265.1,330.2c4.2,0,8.4,0,12.6,0c0,4.2,0,8.4,0,12.8c-4.2,0-8.3,0-12.6,0C265.1,338.7,265.1,334.6,265.1,330.2
		z"/>
</g>
</svg>
